<svg xmlns="http://www.w3.org/2000/svg" xmlns:xlink="http://www.w3.org/1999/xlink" version="1.1" x="0px" y="0px" viewBox="0 0 100 100" enable-background="new 0 0 100 100" xml:space="preserve"><path d="M85.968,86.253V72.438H74.231v13.815h-8.42L47.647,40.025l31.662,16.894v15.466h2V57.985l6.034,3.22l4.286-8.032  L30.034,20.308l3.613-6.731L26.04,4.751l-0.758,0.667c-0.331,0.291-8.117,7.212-10.615,15.63  c-3.339,11.256,0.963,19.163,1.889,20.679v39.658h-2.771v2h2.771v2.868H5.1v2h90v-2H85.968z M76.231,74.438h7.736v11.815h-7.736  V74.438z M43.37,67.757h11.467L43.37,77.899V67.757z M56.772,68.715l4.087,10.403H45.01L56.772,68.715z M44.348,65.757l7.341-9.979  l3.921,9.979H44.348z M43.37,63.709v-8.73h6.422L43.37,63.709z M43.37,81.118h18.275l2.018,5.135H43.37V81.118z M50.589,52.979  H43.37V37.742l1.559,0.832L50.589,52.979z M88.924,53.995L86.521,58.5L26.674,26.568l2.415-4.499L88.924,53.995z M25.866,7.612  l5.369,6.23l-1.751,3.262l-8.149-4.352C23.124,10.382,24.902,8.549,25.866,7.612z M20.164,14.393l8.375,4.473l-0.268,0.5  l-0.053-0.029l-4.286,8.032l0.033,0.018l-0.271,0.505l-7.656-4.088c0.152-0.716,0.326-1.442,0.548-2.189  C17.355,19.021,18.703,16.549,20.164,14.393z M15.673,25.877l7.074,3.777l-5.193,9.674C16.473,37.005,14.824,32.207,15.673,25.877z   M18.556,83.385h2.893v-2h-2.893V41.691l7.173-13.362l15.642,8.346v49.578H18.556V83.385z"></path><rect x="12.259" y="91.367" width="45.521" height="2"></rect><rect x="61.859" y="91.367" width="26.34" height="2"></rect></svg>